<?xml version="1.0" encoding="UTF-8" standalone="no"?>
<!-- Created with Inkscape (http://www.inkscape.org/) -->

<svg
   width="200mm"
   height="200mm"
   viewBox="0 0 200 200"
   version="1.1"
   id="svg1"
   xml:space="preserve"
   inkscape:version="1.4.2 (ebf0e940d0, 2025-05-08)"
   sodipodi:docname="logo.svg"
   inkscape:export-filename="logo.png"
   inkscape:export-xdpi="96"
   inkscape:export-ydpi="96"
   xmlns:inkscape="http://www.inkscape.org/namespaces/inkscape"
   xmlns:sodipodi="http://sodipodi.sourceforge.net/DTD/sodipodi-0.dtd"
   xmlns:xlink="http://www.w3.org/1999/xlink"
   xmlns="http://www.w3.org/2000/svg"
   xmlns:svg="http://www.w3.org/2000/svg"><sodipodi:namedview
     id="namedview1"
     pagecolor="#ffffff"
     bordercolor="#eeeeee"
     borderopacity="1"
     inkscape:showpageshadow="0"
     inkscape:pageopacity="0"
     inkscape:pagecheckerboard="0"
     inkscape:deskcolor="#505050"
     inkscape:document-units="mm"
     inkscape:zoom="1.3873773"
     inkscape:cx="346.33693"
     inkscape:cy="394.98988"
     inkscape:window-width="3424"
     inkscape:window-height="2128"
     inkscape:window-x="0"
     inkscape:window-y="0"
     inkscape:window-maximized="1"
     inkscape:current-layer="layer1" /><defs
     id="defs1"><linearGradient
       id="linearGradient4"
       inkscape:collect="always"><stop
         style="stop-color:#1544e3;stop-opacity:1;"
         offset="0"
         id="stop4" /><stop
         style="stop-color:#303cdc;stop-opacity:1;"
         offset="0.54839259"
         id="stop7" /><stop
         style="stop-color:#d013b8;stop-opacity:1;"
         offset="0.6798985"
         id="stop8" /><stop
         style="stop-color:#da11b6;stop-opacity:1;"
         offset="1"
         id="stop5" /></linearGradient><radialGradient
       inkscape:collect="always"
       xlink:href="#linearGradient4"
       id="radialGradient5"
       cx="134.74402"
       cy="37.790323"
       fx="134.74402"
       fy="37.790323"
       r="92.379712"
       gradientTransform="matrix(0.91236185,0.52675236,-0.45782596,0.79297782,-7.8437188,-0.85051578)"
       gradientUnits="userSpaceOnUse" /></defs><g
     inkscape:label="Layer 1"
     inkscape:groupmode="layer"
     id="layer1"><path
       id="rect1"
       style="fill:url(#radialGradient5);stroke:none;stroke-width:0.561899;stroke-linecap:round;stroke-linejoin:bevel;stroke-dasharray:1.12381, 2.2476"
       d="m 98.078767,2.5863627 -5.212761,3.0095189 v 5.7261424 l -29.35424,16.947597 -4.885568,-2.848372 -5.225282,2.987742 -0.0245,5.712533 -29.381461,16.963384 -5.078291,-2.961065 -5.225281,2.987742 -0.02559,6.019037 4.685224,2.731323 v 34.436887 l -4.818061,2.754733 -0.02559,6.019035 4.843648,2.82388 1e-6,34.03292 -5.011871,2.86525 -0.02504,6.01904 5.199695,3.03184 4.678689,-2.67525 29.911717,17.26989 7e-6,5.52689 5.213298,3.00952 4.785946,-2.76345 29.613923,17.09732 -3e-6,5.52688 5.213308,3.01007 5.212756,-3.01006 1e-5,-6.01905 -0.16605,-0.0958 29.41576,-16.98354 4.95743,2.83477 5.20024,-3.03185 -0.0239,-5.65319 29.7326,-17.16645 4.79901,2.7433 5.20024,-3.03129 -0.0256,-6.01958 -4.76689,-2.72534 1e-5,-34.31494 4.59866,-2.68123 -0.025,-6.019042 -4.57362,-2.61482 V 60.27352 l 5.05162,-2.916968 v -6.019036 l -5.21276,-3.00952 -4.80445,2.77379 -29.59596,-17.086966 -1e-5,-5.548124 -5.21275,-3.009515 -4.80446,2.773785 L 103.29162,11.144 V 5.5958818 Z m 4.785943,9.2751753 29.61447,17.097855 v 5.077746 l -27.51576,15.886536 -6.166575,-3.559923 4e-6,-32.153613 z m -9.417815,0.08928 3.401497,1.963701 -3e-6,32.31367 -5.804535,3.350868 -27.240283,-15.727022 0.02014,-4.798462 z m 49.031525,22.781535 29.61393,17.097856 -1e-5,3.732496 -28.68079,16.55889 -5.00153,-2.887572 v -32.15307 z m -88.535813,0.02613 3.592041,2.09436 1e-6,31.727883 -5.804539,3.350866 -27.633892,-15.954042 0.01742,-3.997085 z m 8.441678,0.523727 27.301253,15.762406 5e-6,6.203596 -25.032686,14.45255 -5.169752,-2.984476 V 36.941038 Z m 71.654635,0.104528 2.42264,1.398595 v 32.313676 l -4.88502,2.820606 -25.85149,-14.925101 v -5.260671 z m 38.44813,22.197923 4.14407,2.392695 v 33.815711 l -4.48106,2.612642 -26.81184,-15.479316 1e-5,-7.666974 z M 23.178336,57.696809 50.371798,73.397154 v 7.846634 l -26.934321,15.550087 -4.251871,-2.47926 v -34.33508 z m 81.202024,2.703558 24.91835,14.386676 1e-5,5.331444 -21.59581,12.468158 -8.259298,-4.768517 3e-6,-24.567209 z m -13.130172,0.126849 4.570899,2.639319 -4e-6,25.081679 -6.995719,4.039003 L 66.411313,79.346506 V 74.86816 Z m -39.565264,22.207721 5.31511,3.068316 -4e-6,28.481547 -5.643383,3.25832 -27.41722,-15.82937 0.01198,-2.967063 z m 13.381687,0.01797 21.480929,12.402286 -2e-6,9.300217 -21.595252,12.46817 -4.330264,-2.49995 -3e-6,-29.104357 z m 79.682019,0.08221 26.87225,15.514696 0.0153,3.648117 -27.2528,15.73519 -5.32655,-3.0754 V 86.121193 Z m -13.88528,0.562919 4.5709,2.639319 v 29.050455 l -3.55882,2.05462 -22.41407,-12.94126 v -8.446577 z m 42.08917,20.089954 3.6786,2.10307 1e-5,34.05525 -3.78912,2.20923 -27.20435,-15.70688 v -6.89064 z m -149.752408,0.0485 27.470572,15.86041 -1e-6,7.06975 -27.627906,15.95078 -3.857174,-2.24843 3e-6,-34.3378 z m 84.917098,4.07167 21.48093,12.40229 v 5.33144 l -25.03323,14.45255 -4.912244,-2.83585 10e-7,-24.46377 z m -20.005026,0.12685 7.917956,4.57144 -5e-6,25.18566 -4.141351,2.39107 -25.178045,-14.53639 2e-6,-5.25522 z m -36.127832,20.22279 5.722331,3.3035 1e-6,32.02949 -4.19417,2.42101 -29.771252,-17.18823 0.01797,-4.27038 z m 93.063158,0.10072 26.76446,15.45209 0.0185,4.49577 -29.82516,17.21926 -3.6699,-2.09818 v -31.19381 z m -80.354371,0.30595 25.59071,14.7743 10e-7,5.5258 -28.344345,16.36453 -2.284372,-1.31856 8e-6,-32.43726 z m 66.469651,0.25643 5.22473,3.01659 v 31.42955 l -3.07539,1.7933 -26.98822,-15.58167 v -6.31737 z m -40.147787,21.87127 5.722332,3.30405 v 32.70129 l -3.611642,2.0851 -29.595415,-17.08695 -1e-6,-5.13546 z m 14.046417,0.30705 27.04211,15.6127 0.0191,4.51972 -29.98032,17.30854 -3.457023,-1.99582 -3e-6,-31.76436 z" /></g></svg>
